<?xml version="1.0" encoding="UTF-8" standalone="no"?>
<svg
   viewBox="0 0 42.5 42.5"
   version="1.1"
   xml:space="preserve"
   x="0px"
   y="0px"
   fill-rule="evenodd"
   clip-rule="evenodd"
   stroke-linejoin="round"
   stroke-miterlimit="2"
   id="svg1050"
   sodipodi:docname="server_icon.svg"
   width="42.5"
   height="42.5"
   inkscape:version="1.1.2 (0a00cf5339, 2022-02-04)"
   xmlns:inkscape="http://www.inkscape.org/namespaces/inkscape"
   xmlns:sodipodi="http://sodipodi.sourceforge.net/DTD/sodipodi-0.dtd"
   xmlns="http://www.w3.org/2000/svg"
   xmlns:svg="http://www.w3.org/2000/svg"><defs
     id="defs1054" /><sodipodi:namedview
     id="namedview1052"
     pagecolor="#505050"
     bordercolor="#ffffff"
     borderopacity="1"
     inkscape:pageshadow="0"
     inkscape:pageopacity="0"
     inkscape:pagecheckerboard="1"
     showgrid="false"
     inkscape:zoom="8.35"
     inkscape:cx="16.646707"
     inkscape:cy="22.095808"
     inkscape:window-width="1360"
     inkscape:window-height="710"
     inkscape:window-x="0"
     inkscape:window-y="25"
     inkscape:window-maximized="1"
     inkscape:current-layer="svg1050" /><g
     transform="matrix(0.95454498,0,0,1,-139.11364,-794.7504)"
     id="g1044"><g
       transform="scale(1.5)"
       id="g1042"><g
         id="g1040"><g
           transform="scale(0.666667)"
           id="g1010"><path
             d="m 159,815 c -0.552,0 -1,-0.448 -1,-1 0,-0.552 0.448,-1 1,-1 h 16 c 0.552,0 1,0.448 1,1 0,0.552 -0.448,1 -1,1 z"
             id="path1008" /></g><g
           transform="scale(0.666667)"
           id="g1014"><circle
             cx="153"
             cy="826"
             r="1"
             id="circle1012" /></g><g
           transform="scale(0.666667)"
           id="g1018"><path
             d="m 180,825 h 4 v 2 h -4 z"
             id="path1016" /></g><g
           transform="scale(0.666667)"
           id="g1022"><circle
             cx="153"
             cy="814"
             r="3"
             id="circle1020" /></g><g
           transform="scale(0.666667)"
           id="g1026"><path
             d="m 186,813 v 2 c 0,0.53 -0.211,1.039 -0.586,1.414 C 185.039,816.789 184.53,817 184,817 h -4 c -0.53,0 -1.039,-0.211 -1.414,-0.586 C 178.211,816.039 178,815.53 178,815 v -2 c 0,-0.53 0.211,-1.039 0.586,-1.414 C 178.961,811.211 179.47,811 180,811 h 4 c 0.53,0 1.039,0.211 1.414,0.586 0.375,0.375 0.586,0.884 0.586,1.414 z"
             id="path1024" /></g><g
           transform="scale(0.666667)"
           id="g1030"><path
             d="m 146,830 v -32 c 0,-1.657 1.343,-3 3,-3 h 38 c 1.657,0 3,1.343 3,3 v 32 c 0,1.657 -1.343,3 -3,3 h -3 v 1 c 0,1.657 -1.343,3 -3,3 h -2 c -1.657,0 -3,-1.343 -3,-3 v -1 h -16 v 1 c 0,1.657 -1.343,3 -3,3 h -2 c -1.657,0 -3,-1.343 -3,-3 v -1 h -3 c -1.657,0 -3,-1.343 -3,-3 z m 32,3 v 1 c 0,0.552 0.448,1 1,1 h 2 c 0.552,0 1,-0.448 1,-1 v -1 z m -25,-10 c -1.656,0 -3,1.344 -3,3 0,1.656 1.344,3 3,3 1.656,0 3,-1.344 3,-3 0,-1.656 -1.344,-3 -3,-3 z m 35,-4 v -10 c 0,0 -40,0 -40,0 v 10 c 0,0 40,0 40,0 z m -2,6 c 0,-0.53 -0.211,-1.039 -0.586,-1.414 C 185.039,823.211 184.53,823 184,823 h -4 c -0.53,0 -1.039,0.211 -1.414,0.586 C 178.211,823.961 178,824.47 178,825 v 2 c 0,0.53 0.211,1.039 0.586,1.414 0.375,0.375 0.884,0.586 1.414,0.586 h 4 c 0.53,0 1.039,-0.211 1.414,-0.586 C 185.789,828.039 186,827.53 186,827 Z m -27,2 h 16 c 0.552,0 1,-0.448 1,-1 0,-0.552 -0.448,-1 -1,-1 h -16 c -0.552,0 -1,0.448 -1,1 0,0.552 0.448,1 1,1 z m -6,-28 c -1.656,0 -3,1.344 -3,3 0,1.656 1.344,3 3,3 1.656,0 3,-1.344 3,-3 0,-1.656 -1.344,-3 -3,-3 z m 6,4 h 16 c 0.552,0 1,-0.448 1,-1 0,-0.552 -0.448,-1 -1,-1 h -16 c -0.552,0 -1,0.448 -1,1 0,0.552 0.448,1 1,1 z m 27,-2 c 0,-0.53 -0.211,-1.039 -0.586,-1.414 C 185.039,799.211 184.53,799 184,799 h -4 c -0.53,0 -1.039,0.211 -1.414,0.586 C 178.211,799.961 178,800.47 178,801 v 2 c 0,0.53 0.211,1.039 0.586,1.414 0.375,0.375 0.884,0.586 1.414,0.586 h 4 c 0.53,0 1.039,-0.211 1.414,-0.586 C 185.789,804.039 186,803.53 186,803 Z m -32,32 v 1 c 0,0.552 0.448,1 1,1 h 2 c 0.552,0 1,-0.448 1,-1 v -1 z"
             id="path1028" /></g><g
           transform="scale(0.666667)"
           id="g1034"><circle
             cx="153"
             cy="802"
             r="1"
             id="circle1032" /></g><g
           transform="scale(0.666667)"
           id="g1038"><path
             d="m 180,801 h 4 v 2 h -4 z"
             id="path1036" /></g></g></g></g></svg>
